<svg xmlns="http://www.w3.org/2000/svg" xmlns:xlink="http://www.w3.org/1999/xlink" width="400" zoomAndPan="magnify" viewBox="0 0 300 112.499997" height="150" preserveAspectRatio="xMidYMid meet" version="1.0"><defs><g/><clipPath id="37514fa402"><path d="M 7 38 L 42 38 L 42 73 L 7 73 Z M 7 38 " clip-rule="nonzero"/></clipPath><clipPath id="6b6ee5c947"><path d="M 13.296875 34.074219 L 46.191406 43.957031 L 36.304688 76.851562 L 3.410156 66.96875 Z M 13.296875 34.074219 " clip-rule="nonzero"/></clipPath><clipPath id="b3ba3af0c3"><path d="M 13.296875 34.074219 L 46.191406 43.957031 L 36.304688 76.851562 L 3.410156 66.96875 Z M 13.296875 34.074219 " clip-rule="nonzero"/></clipPath><clipPath id="a61c0b8ba2"><path d="M 40.960938 60.136719 C 40.800781 60.671875 40.617188 61.195312 40.40625 61.710938 C 40.191406 62.222656 39.957031 62.726562 39.695312 63.21875 C 39.433594 63.710938 39.148438 64.1875 38.839844 64.652344 C 38.535156 65.117188 38.203125 65.5625 37.851562 65.996094 C 37.5 66.425781 37.125 66.839844 36.734375 67.234375 C 36.339844 67.628906 35.929688 68.003906 35.5 68.359375 C 35.070312 68.710938 34.625 69.042969 34.164062 69.355469 C 33.703125 69.664062 33.226562 69.953125 32.734375 70.214844 C 32.246094 70.480469 31.742188 70.71875 31.230469 70.933594 C 30.714844 71.148438 30.191406 71.335938 29.660156 71.5 C 29.128906 71.664062 28.589844 71.800781 28.042969 71.910156 C 27.496094 72.019531 26.945312 72.101562 26.394531 72.15625 C 25.839844 72.214844 25.285156 72.242188 24.726562 72.246094 C 24.171875 72.246094 23.613281 72.21875 23.0625 72.167969 C 22.507812 72.113281 21.957031 72.035156 21.410156 71.925781 C 20.863281 71.820312 20.324219 71.683594 19.789062 71.523438 C 19.257812 71.363281 18.734375 71.179688 18.21875 70.96875 C 17.703125 70.753906 17.199219 70.519531 16.707031 70.257812 C 16.21875 69.996094 15.738281 69.710938 15.277344 69.402344 C 14.8125 69.097656 14.363281 68.765625 13.933594 68.414062 C 13.503906 68.0625 13.089844 67.691406 12.695312 67.296875 C 12.300781 66.902344 11.925781 66.492188 11.570312 66.0625 C 11.214844 65.632812 10.882812 65.1875 10.574219 64.726562 C 10.261719 64.265625 9.976562 63.789062 9.710938 63.296875 C 9.449219 62.808594 9.210938 62.304688 8.996094 61.792969 C 8.78125 61.277344 8.59375 60.753906 8.429688 60.222656 C 8.265625 59.691406 8.128906 59.152344 8.019531 58.605469 C 7.910156 58.058594 7.828125 57.511719 7.769531 56.957031 C 7.714844 56.402344 7.6875 55.847656 7.683594 55.289062 C 7.683594 54.734375 7.707031 54.179688 7.761719 53.625 C 7.816406 53.070312 7.894531 52.519531 8.003906 51.972656 C 8.109375 51.425781 8.242188 50.886719 8.402344 50.355469 C 8.5625 49.820312 8.75 49.296875 8.960938 48.78125 C 9.171875 48.265625 9.410156 47.761719 9.671875 47.273438 C 9.929688 46.78125 10.214844 46.300781 10.523438 45.839844 C 10.832031 45.375 11.164062 44.925781 11.515625 44.496094 C 11.867188 44.066406 12.238281 43.652344 12.632812 43.257812 C 13.023438 42.863281 13.433594 42.488281 13.863281 42.132812 C 14.292969 41.78125 14.738281 41.445312 15.203125 41.136719 C 15.664062 40.824219 16.140625 40.539062 16.628906 40.273438 C 17.121094 40.011719 17.621094 39.773438 18.136719 39.558594 C 18.652344 39.34375 19.171875 39.15625 19.707031 38.992188 C 20.238281 38.828125 20.777344 38.691406 21.324219 38.582031 C 21.867188 38.472656 22.417969 38.390625 22.972656 38.332031 C 23.527344 38.277344 24.082031 38.25 24.636719 38.246094 C 25.195312 38.246094 25.75 38.269531 26.304688 38.324219 C 26.859375 38.378906 27.410156 38.457031 27.957031 38.566406 C 28.5 38.671875 29.042969 38.804688 29.574219 38.964844 C 30.109375 39.125 30.632812 39.3125 31.148438 39.523438 C 31.660156 39.734375 32.164062 39.972656 32.65625 40.234375 C 33.148438 40.496094 33.625 40.777344 34.089844 41.085938 C 34.554688 41.394531 35 41.726562 35.433594 42.078125 C 35.863281 42.429688 36.277344 42.800781 36.671875 43.195312 C 37.066406 43.585938 37.441406 44 37.792969 44.425781 C 38.148438 44.855469 38.480469 45.300781 38.792969 45.765625 C 39.101562 46.226562 39.390625 46.703125 39.652344 47.195312 C 39.917969 47.683594 40.15625 48.1875 40.371094 48.699219 C 40.585938 49.214844 40.773438 49.738281 40.9375 50.269531 C 41.097656 50.800781 41.234375 51.339844 41.347656 51.886719 C 41.457031 52.429688 41.539062 52.980469 41.59375 53.535156 C 41.652344 54.089844 41.679688 54.644531 41.679688 55.203125 C 41.683594 55.757812 41.65625 56.3125 41.605469 56.867188 C 41.550781 57.421875 41.46875 57.972656 41.363281 58.519531 C 41.257812 59.066406 41.121094 59.605469 40.960938 60.136719 Z M 40.960938 60.136719 " clip-rule="nonzero"/></clipPath><linearGradient x1="-0.123393" gradientTransform="matrix(32.559092, 9.78387, -9.78387, 32.559092, 13.295193, 34.074159)" y1="-0.122183" x2="1.128294" gradientUnits="userSpaceOnUse" y2="1.117232" id="b0452e7eb3"><stop stop-opacity="1" stop-color="rgb(0%, 0%, 0%)" offset="0"/><stop stop-opacity="1" stop-color="rgb(0%, 0%, 0%)" offset="0.0625"/><stop stop-opacity="1" stop-color="rgb(0%, 0%, 0%)" offset="0.09375"/><stop stop-opacity="1" stop-color="rgb(0.088501%, 0.0289917%, 0.166321%)" offset="0.101562"/><stop stop-opacity="1" stop-color="rgb(0.410461%, 0.138855%, 0.770569%)" offset="0.105469"/><stop stop-opacity="1" stop-color="rgb(0.645447%, 0.218201%, 1.208496%)" offset="0.109375"/><stop stop-opacity="1" stop-color="rgb(0.878906%, 0.297546%, 1.644897%)" offset="0.113281"/><stop stop-opacity="1" stop-color="rgb(1.112366%, 0.376892%, 2.082825%)" offset="0.117187"/><stop stop-opacity="1" stop-color="rgb(1.345825%, 0.456238%, 2.520752%)" offset="0.121094"/><stop stop-opacity="1" stop-color="rgb(1.579285%, 0.535583%, 2.958679%)" offset="0.125"/><stop stop-opacity="1" stop-color="rgb(1.812744%, 0.614929%, 3.395081%)" offset="0.128906"/><stop stop-opacity="1" stop-color="rgb(2.047729%, 0.694275%, 3.833008%)" offset="0.132812"/><stop stop-opacity="1" stop-color="rgb(2.281189%, 0.773621%, 4.270935%)" offset="0.136719"/><stop stop-opacity="1" stop-color="rgb(2.514648%, 0.852966%, 4.708862%)" offset="0.140625"/><stop stop-opacity="1" stop-color="rgb(2.748108%, 0.932312%, 5.145264%)" offset="0.144531"/><stop stop-opacity="1" stop-color="rgb(2.981567%, 1.011658%, 5.583191%)" offset="0.148438"/><stop stop-opacity="1" stop-color="rgb(3.215027%, 1.091003%, 6.021118%)" offset="0.152344"/><stop stop-opacity="1" stop-color="rgb(3.448486%, 1.170349%, 6.459045%)" offset="0.15625"/><stop stop-opacity="1" stop-color="rgb(3.681946%, 1.249695%, 6.895447%)" offset="0.160156"/><stop stop-opacity="1" stop-color="rgb(3.916931%, 1.329041%, 7.333374%)" offset="0.164062"/><stop stop-opacity="1" stop-color="rgb(4.150391%, 1.408386%, 7.771301%)" offset="0.167969"/><stop stop-opacity="1" stop-color="rgb(4.38385%, 1.487732%, 8.209229%)" offset="0.171875"/><stop stop-opacity="1" stop-color="rgb(4.61731%, 1.567078%, 8.64563%)" offset="0.175781"/><stop stop-opacity="1" stop-color="rgb(4.850769%, 1.646423%, 9.083557%)" offset="0.179688"/><stop stop-opacity="1" stop-color="rgb(5.084229%, 1.725769%, 9.521484%)" offset="0.183594"/><stop stop-opacity="1" stop-color="rgb(5.319214%, 1.805115%, 9.959412%)" offset="0.1875"/><stop stop-opacity="1" stop-color="rgb(5.552673%, 1.88446%, 10.395813%)" offset="0.191406"/><stop stop-opacity="1" stop-color="rgb(5.786133%, 1.963806%, 10.83374%)" offset="0.195312"/><stop stop-opacity="1" stop-color="rgb(6.019592%, 2.043152%, 11.271667%)" offset="0.199219"/><stop stop-opacity="1" stop-color="rgb(6.253052%, 2.122498%, 11.709595%)" offset="0.203125"/><stop stop-opacity="1" stop-color="rgb(6.486511%, 2.201843%, 12.145996%)" offset="0.207031"/><stop stop-opacity="1" stop-color="rgb(6.719971%, 2.281189%, 12.583923%)" offset="0.210937"/><stop stop-opacity="1" stop-color="rgb(6.95343%, 2.360535%, 13.021851%)" offset="0.214844"/><stop stop-opacity="1" stop-color="rgb(7.188416%, 2.43988%, 13.459778%)" offset="0.21875"/><stop stop-opacity="1" stop-color="rgb(7.421875%, 2.519226%, 13.896179%)" offset="0.222656"/><stop stop-opacity="1" stop-color="rgb(7.655334%, 2.598572%, 14.334106%)" offset="0.226562"/><stop stop-opacity="1" stop-color="rgb(7.888794%, 2.677917%, 14.772034%)" offset="0.230469"/><stop stop-opacity="1" stop-color="rgb(8.122253%, 2.757263%, 15.209961%)" offset="0.234375"/><stop stop-opacity="1" stop-color="rgb(8.355713%, 2.836609%, 15.646362%)" offset="0.238281"/><stop stop-opacity="1" stop-color="rgb(8.589172%, 2.915955%, 16.08429%)" offset="0.242187"/><stop stop-opacity="1" stop-color="rgb(8.822632%, 2.9953%, 16.522217%)" offset="0.246094"/><stop stop-opacity="1" stop-color="rgb(9.057617%, 3.074646%, 16.960144%)" offset="0.25"/><stop stop-opacity="1" stop-color="rgb(9.291077%, 3.153992%, 17.396545%)" offset="0.253906"/><stop stop-opacity="1" stop-color="rgb(9.524536%, 3.233337%, 17.834473%)" offset="0.257812"/><stop stop-opacity="1" stop-color="rgb(9.757996%, 3.312683%, 18.2724%)" offset="0.261719"/><stop stop-opacity="1" stop-color="rgb(9.991455%, 3.392029%, 18.710327%)" offset="0.265625"/><stop stop-opacity="1" stop-color="rgb(10.224915%, 3.471375%, 19.146729%)" offset="0.269531"/><stop stop-opacity="1" stop-color="rgb(10.4599%, 3.55072%, 19.584656%)" offset="0.273438"/><stop stop-opacity="1" stop-color="rgb(10.693359%, 3.630066%, 20.022583%)" offset="0.277344"/><stop stop-opacity="1" stop-color="rgb(10.926819%, 3.709412%, 20.46051%)" offset="0.28125"/><stop stop-opacity="1" stop-color="rgb(11.160278%, 3.788757%, 20.896912%)" offset="0.285156"/><stop stop-opacity="1" stop-color="rgb(11.393738%, 3.868103%, 21.334839%)" offset="0.289062"/><stop stop-opacity="1" stop-color="rgb(11.627197%, 3.947449%, 21.772766%)" offset="0.292969"/><stop stop-opacity="1" stop-color="rgb(11.860657%, 4.026794%, 22.210693%)" offset="0.296875"/><stop stop-opacity="1" stop-color="rgb(12.094116%, 4.10614%, 22.647095%)" offset="0.300781"/><stop stop-opacity="1" stop-color="rgb(12.329102%, 4.185486%, 23.085022%)" offset="0.304687"/><stop stop-opacity="1" stop-color="rgb(12.562561%, 4.264832%, 23.522949%)" offset="0.308594"/><stop stop-opacity="1" stop-color="rgb(12.796021%, 4.344177%, 23.960876%)" offset="0.3125"/><stop stop-opacity="1" stop-color="rgb(13.02948%, 4.423523%, 24.397278%)" offset="0.316406"/><stop stop-opacity="1" stop-color="rgb(13.262939%, 4.502869%, 24.835205%)" offset="0.320312"/><stop stop-opacity="1" stop-color="rgb(13.496399%, 4.582214%, 25.273132%)" offset="0.324219"/><stop stop-opacity="1" stop-color="rgb(13.731384%, 4.66156%, 25.71106%)" offset="0.328125"/><stop stop-opacity="1" stop-color="rgb(13.964844%, 4.740906%, 26.147461%)" offset="0.332031"/><stop stop-opacity="1" stop-color="rgb(14.198303%, 4.820251%, 26.585388%)" offset="0.335937"/><stop stop-opacity="1" stop-color="rgb(14.431763%, 4.899597%, 27.023315%)" offset="0.339844"/><stop stop-opacity="1" stop-color="rgb(14.665222%, 4.978943%, 27.461243%)" offset="0.34375"/><stop stop-opacity="1" stop-color="rgb(14.898682%, 5.058289%, 27.897644%)" offset="0.347656"/><stop stop-opacity="1" stop-color="rgb(15.132141%, 5.137634%, 28.335571%)" offset="0.351562"/><stop stop-opacity="1" stop-color="rgb(15.365601%, 5.21698%, 28.773499%)" offset="0.355469"/><stop stop-opacity="1" stop-color="rgb(15.600586%, 5.296326%, 29.211426%)" offset="0.359375"/><stop stop-opacity="1" stop-color="rgb(15.834045%, 5.375671%, 29.647827%)" offset="0.363281"/><stop stop-opacity="1" stop-color="rgb(16.067505%, 5.455017%, 30.085754%)" offset="0.367188"/><stop stop-opacity="1" stop-color="rgb(16.300964%, 5.534363%, 30.523682%)" offset="0.371094"/><stop stop-opacity="1" stop-color="rgb(16.534424%, 5.613708%, 30.961609%)" offset="0.375"/><stop stop-opacity="1" stop-color="rgb(16.767883%, 5.693054%, 31.39801%)" offset="0.378906"/><stop stop-opacity="1" stop-color="rgb(17.002869%, 5.7724%, 31.835938%)" offset="0.382812"/><stop stop-opacity="1" stop-color="rgb(17.236328%, 5.851746%, 32.273865%)" offset="0.386719"/><stop stop-opacity="1" stop-color="rgb(17.469788%, 5.931091%, 32.711792%)" offset="0.390625"/><stop stop-opacity="1" stop-color="rgb(17.703247%, 6.010437%, 33.148193%)" offset="0.394531"/><stop stop-opacity="1" stop-color="rgb(17.936707%, 6.089783%, 33.586121%)" offset="0.398438"/><stop stop-opacity="1" stop-color="rgb(18.170166%, 6.169128%, 34.024048%)" offset="0.402344"/><stop stop-opacity="1" stop-color="rgb(18.403625%, 6.248474%, 34.461975%)" offset="0.40625"/><stop stop-opacity="1" stop-color="rgb(18.637085%, 6.32782%, 34.898376%)" offset="0.410156"/><stop stop-opacity="1" stop-color="rgb(18.87207%, 6.407166%, 35.336304%)" offset="0.414062"/><stop stop-opacity="1" stop-color="rgb(19.10553%, 6.486511%, 35.774231%)" offset="0.417969"/><stop stop-opacity="1" stop-color="rgb(19.338989%, 6.565857%, 36.212158%)" offset="0.421875"/><stop stop-opacity="1" stop-color="rgb(19.572449%, 6.645203%, 36.64856%)" offset="0.425781"/><stop stop-opacity="1" stop-color="rgb(19.805908%, 6.724548%, 37.086487%)" offset="0.429688"/><stop stop-opacity="1" stop-color="rgb(20.039368%, 6.803894%, 37.524414%)" offset="0.433594"/><stop stop-opacity="1" stop-color="rgb(20.274353%, 6.88324%, 37.962341%)" offset="0.4375"/><stop stop-opacity="1" stop-color="rgb(20.507812%, 6.962585%, 38.398743%)" offset="0.441406"/><stop stop-opacity="1" stop-color="rgb(20.741272%, 7.041931%, 38.83667%)" offset="0.445312"/><stop stop-opacity="1" stop-color="rgb(20.974731%, 7.121277%, 39.274597%)" offset="0.449219"/><stop stop-opacity="1" stop-color="rgb(21.208191%, 7.200623%, 39.712524%)" offset="0.453125"/><stop stop-opacity="1" stop-color="rgb(21.44165%, 7.279968%, 40.148926%)" offset="0.457031"/><stop stop-opacity="1" stop-color="rgb(21.67511%, 7.359314%, 40.586853%)" offset="0.460938"/><stop stop-opacity="1" stop-color="rgb(21.908569%, 7.437134%, 41.02478%)" offset="0.464844"/><stop stop-opacity="1" stop-color="rgb(22.143555%, 7.516479%, 41.462708%)" offset="0.46875"/><stop stop-opacity="1" stop-color="rgb(22.377014%, 7.595825%, 41.899109%)" offset="0.472656"/><stop stop-opacity="1" stop-color="rgb(22.610474%, 7.675171%, 42.337036%)" offset="0.476562"/><stop stop-opacity="1" stop-color="rgb(22.843933%, 7.754517%, 42.774963%)" offset="0.480469"/><stop stop-opacity="1" stop-color="rgb(23.077393%, 7.833862%, 43.212891%)" offset="0.484375"/><stop stop-opacity="1" stop-color="rgb(23.310852%, 7.913208%, 43.649292%)" offset="0.488281"/><stop stop-opacity="1" stop-color="rgb(23.545837%, 7.992554%, 44.087219%)" offset="0.492187"/><stop stop-opacity="1" stop-color="rgb(23.779297%, 8.071899%, 44.525146%)" offset="0.496094"/><stop stop-opacity="1" stop-color="rgb(24.012756%, 8.151245%, 44.963074%)" offset="0.5"/><stop stop-opacity="1" stop-color="rgb(24.246216%, 8.230591%, 45.399475%)" offset="0.503906"/><stop stop-opacity="1" stop-color="rgb(24.479675%, 8.309937%, 45.837402%)" offset="0.507812"/><stop stop-opacity="1" stop-color="rgb(24.713135%, 8.389282%, 46.27533%)" offset="0.511719"/><stop stop-opacity="1" stop-color="rgb(24.946594%, 8.468628%, 46.713257%)" offset="0.515625"/><stop stop-opacity="1" stop-color="rgb(25.180054%, 8.547974%, 47.149658%)" offset="0.519531"/><stop stop-opacity="1" stop-color="rgb(25.415039%, 8.627319%, 47.587585%)" offset="0.523438"/><stop stop-opacity="1" stop-color="rgb(25.648499%, 8.706665%, 48.025513%)" offset="0.527344"/><stop stop-opacity="1" stop-color="rgb(25.881958%, 8.786011%, 48.46344%)" offset="0.53125"/><stop stop-opacity="1" stop-color="rgb(26.115417%, 8.865356%, 48.899841%)" offset="0.535156"/><stop stop-opacity="1" stop-color="rgb(26.348877%, 8.944702%, 49.337769%)" offset="0.539063"/><stop stop-opacity="1" stop-color="rgb(26.582336%, 9.024048%, 49.775696%)" offset="0.542969"/><stop stop-opacity="1" stop-color="rgb(26.817322%, 9.103394%, 50.213623%)" offset="0.546875"/><stop stop-opacity="1" stop-color="rgb(27.050781%, 9.182739%, 50.650024%)" offset="0.550781"/><stop stop-opacity="1" stop-color="rgb(27.284241%, 9.262085%, 51.087952%)" offset="0.554688"/><stop stop-opacity="1" stop-color="rgb(27.5177%, 9.341431%, 51.525879%)" offset="0.558594"/><stop stop-opacity="1" stop-color="rgb(27.75116%, 9.420776%, 51.963806%)" offset="0.5625"/><stop stop-opacity="1" stop-color="rgb(27.984619%, 9.500122%, 52.400208%)" offset="0.566406"/><stop stop-opacity="1" stop-color="rgb(28.218079%, 9.579468%, 52.838135%)" offset="0.570313"/><stop stop-opacity="1" stop-color="rgb(28.451538%, 9.658813%, 53.274536%)" offset="0.574219"/><stop stop-opacity="1" stop-color="rgb(28.686523%, 9.738159%, 53.712463%)" offset="0.578125"/><stop stop-opacity="1" stop-color="rgb(28.919983%, 9.817505%, 54.150391%)" offset="0.582031"/><stop stop-opacity="1" stop-color="rgb(29.153442%, 9.896851%, 54.588318%)" offset="0.585938"/><stop stop-opacity="1" stop-color="rgb(29.386902%, 9.976196%, 55.024719%)" offset="0.589844"/><stop stop-opacity="1" stop-color="rgb(29.620361%, 10.055542%, 55.462646%)" offset="0.59375"/><stop stop-opacity="1" stop-color="rgb(29.853821%, 10.134888%, 55.900574%)" offset="0.597656"/><stop stop-opacity="1" stop-color="rgb(30.088806%, 10.214233%, 56.338501%)" offset="0.601563"/><stop stop-opacity="1" stop-color="rgb(30.322266%, 10.293579%, 56.774902%)" offset="0.605469"/><stop stop-opacity="1" stop-color="rgb(30.555725%, 10.372925%, 57.21283%)" offset="0.609375"/><stop stop-opacity="1" stop-color="rgb(30.789185%, 10.452271%, 57.650757%)" offset="0.613281"/><stop stop-opacity="1" stop-color="rgb(31.022644%, 10.531616%, 58.088684%)" offset="0.617188"/><stop stop-opacity="1" stop-color="rgb(31.256104%, 10.610962%, 58.525085%)" offset="0.621094"/><stop stop-opacity="1" stop-color="rgb(31.489563%, 10.690308%, 58.963013%)" offset="0.625"/><stop stop-opacity="1" stop-color="rgb(31.723022%, 10.769653%, 59.40094%)" offset="0.628906"/><stop stop-opacity="1" stop-color="rgb(31.958008%, 10.848999%, 59.838867%)" offset="0.632813"/><stop stop-opacity="1" stop-color="rgb(32.191467%, 10.928345%, 60.275269%)" offset="0.636719"/><stop stop-opacity="1" stop-color="rgb(32.424927%, 11.00769%, 60.713196%)" offset="0.640625"/><stop stop-opacity="1" stop-color="rgb(32.658386%, 11.087036%, 61.151123%)" offset="0.644531"/><stop stop-opacity="1" stop-color="rgb(32.891846%, 11.166382%, 61.58905%)" offset="0.648438"/><stop stop-opacity="1" stop-color="rgb(33.125305%, 11.245728%, 62.025452%)" offset="0.652344"/><stop stop-opacity="1" stop-color="rgb(33.360291%, 11.325073%, 62.463379%)" offset="0.65625"/><stop stop-opacity="1" stop-color="rgb(33.59375%, 11.404419%, 62.901306%)" offset="0.660156"/><stop stop-opacity="1" stop-color="rgb(33.827209%, 11.483765%, 63.339233%)" offset="0.664062"/><stop stop-opacity="1" stop-color="rgb(34.060669%, 11.56311%, 63.775635%)" offset="0.667969"/><stop stop-opacity="1" stop-color="rgb(34.294128%, 11.642456%, 64.213562%)" offset="0.671875"/><stop stop-opacity="1" stop-color="rgb(34.527588%, 11.721802%, 64.651489%)" offset="0.675781"/><stop stop-opacity="1" stop-color="rgb(34.761047%, 11.801147%, 65.089417%)" offset="0.679688"/><stop stop-opacity="1" stop-color="rgb(34.994507%, 11.880493%, 65.525818%)" offset="0.683594"/><stop stop-opacity="1" stop-color="rgb(35.229492%, 11.959839%, 65.963745%)" offset="0.6875"/><stop stop-opacity="1" stop-color="rgb(35.462952%, 12.039185%, 66.401672%)" offset="0.691406"/><stop stop-opacity="1" stop-color="rgb(35.696411%, 12.11853%, 66.8396%)" offset="0.695312"/><stop stop-opacity="1" stop-color="rgb(35.929871%, 12.197876%, 67.276001%)" offset="0.699219"/><stop stop-opacity="1" stop-color="rgb(36.16333%, 12.277222%, 67.713928%)" offset="0.703125"/><stop stop-opacity="1" stop-color="rgb(36.39679%, 12.356567%, 68.151855%)" offset="0.707031"/><stop stop-opacity="1" stop-color="rgb(36.631775%, 12.435913%, 68.589783%)" offset="0.710937"/><stop stop-opacity="1" stop-color="rgb(36.865234%, 12.515259%, 69.026184%)" offset="0.714844"/><stop stop-opacity="1" stop-color="rgb(37.098694%, 12.594604%, 69.464111%)" offset="0.71875"/><stop stop-opacity="1" stop-color="rgb(37.332153%, 12.67395%, 69.902039%)" offset="0.722656"/><stop stop-opacity="1" stop-color="rgb(37.565613%, 12.753296%, 70.339966%)" offset="0.726562"/><stop stop-opacity="1" stop-color="rgb(37.799072%, 12.832642%, 70.776367%)" offset="0.730469"/><stop stop-opacity="1" stop-color="rgb(38.032532%, 12.911987%, 71.214294%)" offset="0.734375"/><stop stop-opacity="1" stop-color="rgb(38.265991%, 12.991333%, 71.652222%)" offset="0.738281"/><stop stop-opacity="1" stop-color="rgb(38.500977%, 13.070679%, 72.090149%)" offset="0.742187"/><stop stop-opacity="1" stop-color="rgb(38.734436%, 13.150024%, 72.52655%)" offset="0.746094"/><stop stop-opacity="1" stop-color="rgb(38.967896%, 13.22937%, 72.964478%)" offset="0.75"/><stop stop-opacity="1" stop-color="rgb(39.201355%, 13.308716%, 73.402405%)" offset="0.753906"/><stop stop-opacity="1" stop-color="rgb(39.434814%, 13.388062%, 73.840332%)" offset="0.757812"/><stop stop-opacity="1" stop-color="rgb(39.668274%, 13.467407%, 74.276733%)" offset="0.761719"/><stop stop-opacity="1" stop-color="rgb(39.901733%, 13.546753%, 74.714661%)" offset="0.765625"/><stop stop-opacity="1" stop-color="rgb(40.135193%, 13.626099%, 75.152588%)" offset="0.769531"/><stop stop-opacity="1" stop-color="rgb(40.370178%, 13.705444%, 75.590515%)" offset="0.773437"/><stop stop-opacity="1" stop-color="rgb(40.603638%, 13.78479%, 76.026917%)" offset="0.777344"/><stop stop-opacity="1" stop-color="rgb(40.837097%, 13.864136%, 76.464844%)" offset="0.78125"/><stop stop-opacity="1" stop-color="rgb(41.070557%, 13.943481%, 76.902771%)" offset="0.785156"/><stop stop-opacity="1" stop-color="rgb(41.304016%, 14.022827%, 77.340698%)" offset="0.789062"/><stop stop-opacity="1" stop-color="rgb(41.537476%, 14.102173%, 77.7771%)" offset="0.792969"/><stop stop-opacity="1" stop-color="rgb(41.772461%, 14.181519%, 78.215027%)" offset="0.796875"/><stop stop-opacity="1" stop-color="rgb(42.00592%, 14.260864%, 78.652954%)" offset="0.800781"/><stop stop-opacity="1" stop-color="rgb(42.23938%, 14.34021%, 79.090881%)" offset="0.804687"/><stop stop-opacity="1" stop-color="rgb(42.472839%, 14.419556%, 79.527283%)" offset="0.808594"/><stop stop-opacity="1" stop-color="rgb(42.706299%, 14.498901%, 79.96521%)" offset="0.8125"/><stop stop-opacity="1" stop-color="rgb(42.939758%, 14.578247%, 80.403137%)" offset="0.816406"/><stop stop-opacity="1" stop-color="rgb(43.173218%, 14.657593%, 80.841064%)" offset="0.820312"/><stop stop-opacity="1" stop-color="rgb(43.406677%, 14.736938%, 81.277466%)" offset="0.824219"/><stop stop-opacity="1" stop-color="rgb(43.641663%, 14.816284%, 81.715393%)" offset="0.828125"/><stop stop-opacity="1" stop-color="rgb(43.875122%, 14.89563%, 82.15332%)" offset="0.832031"/><stop stop-opacity="1" stop-color="rgb(44.108582%, 14.974976%, 82.591248%)" offset="0.835937"/><stop stop-opacity="1" stop-color="rgb(44.342041%, 15.054321%, 83.027649%)" offset="0.839844"/><stop stop-opacity="1" stop-color="rgb(44.5755%, 15.133667%, 83.465576%)" offset="0.84375"/><stop stop-opacity="1" stop-color="rgb(44.80896%, 15.213013%, 83.903503%)" offset="0.847656"/><stop stop-opacity="1" stop-color="rgb(45.043945%, 15.292358%, 84.341431%)" offset="0.851562"/><stop stop-opacity="1" stop-color="rgb(45.277405%, 15.371704%, 84.777832%)" offset="0.855469"/><stop stop-opacity="1" stop-color="rgb(45.510864%, 15.45105%, 85.215759%)" offset="0.859375"/><stop stop-opacity="1" stop-color="rgb(45.744324%, 15.530396%, 85.653687%)" offset="0.863281"/><stop stop-opacity="1" stop-color="rgb(45.977783%, 15.609741%, 86.091614%)" offset="0.867188"/><stop stop-opacity="1" stop-color="rgb(46.211243%, 15.689087%, 86.528015%)" offset="0.871094"/><stop stop-opacity="1" stop-color="rgb(46.444702%, 15.768433%, 86.965942%)" offset="0.875"/><stop stop-opacity="1" stop-color="rgb(46.678162%, 15.847778%, 87.40387%)" offset="0.878906"/><stop stop-opacity="1" stop-color="rgb(46.913147%, 15.927124%, 87.841797%)" offset="0.882812"/><stop stop-opacity="1" stop-color="rgb(47.146606%, 16.00647%, 88.278198%)" offset="0.886719"/><stop stop-opacity="1" stop-color="rgb(47.380066%, 16.085815%, 88.716125%)" offset="0.890625"/><stop stop-opacity="1" stop-color="rgb(47.613525%, 16.165161%, 89.154053%)" offset="0.894531"/><stop stop-opacity="1" stop-color="rgb(47.846985%, 16.244507%, 89.59198%)" offset="0.898438"/><stop stop-opacity="1" stop-color="rgb(48.080444%, 16.323853%, 90.028381%)" offset="0.902344"/><stop stop-opacity="1" stop-color="rgb(48.31543%, 16.403198%, 90.466309%)" offset="0.90625"/><stop stop-opacity="1" stop-color="rgb(48.457336%, 16.4505%, 90.731812%)" offset="0.910156"/><stop stop-opacity="1" stop-color="rgb(48.599243%, 16.499329%, 90.99884%)" offset="0.914062"/><stop stop-opacity="1" stop-color="rgb(48.599243%, 16.499329%, 90.99884%)" offset="0.921875"/><stop stop-opacity="1" stop-color="rgb(48.599243%, 16.499329%, 90.99884%)" offset="0.9375"/><stop stop-opacity="1" stop-color="rgb(48.599243%, 16.499329%, 90.99884%)" offset="1"/></linearGradient><clipPath id="db4fbc71cd"><path d="M 20 50 L 41 50 L 41 65 L 20 65 Z M 20 50 " clip-rule="nonzero"/></clipPath><clipPath id="116e1b478a"><path d="M 13.46875 43.292969 L 40.644531 51.457031 L 35.917969 67.191406 L 8.742188 59.023438 Z M 13.46875 43.292969 " clip-rule="nonzero"/></clipPath><clipPath id="65c4d1b1a1"><path d="M 13.46875 43.292969 L 40.644531 51.457031 L 35.917969 67.191406 L 8.742188 59.023438 Z M 13.46875 43.292969 " clip-rule="nonzero"/></clipPath><clipPath id="42059a64a0"><path d="M 8 46 L 30 46 L 30 61 L 8 61 Z M 8 46 " clip-rule="nonzero"/></clipPath><clipPath id="034e069ab7"><path d="M 13.46875 43.292969 L 40.644531 51.457031 L 35.917969 67.191406 L 8.742188 59.023438 Z M 13.46875 43.292969 " clip-rule="nonzero"/></clipPath><clipPath id="9b72d94a6f"><path d="M 13.46875 43.292969 L 40.644531 51.457031 L 35.917969 67.191406 L 8.742188 59.023438 Z M 13.46875 43.292969 " clip-rule="nonzero"/></clipPath></defs><g clip-path="url(#37514fa402)"><g clip-path="url(#6b6ee5c947)"><g clip-path="url(#b3ba3af0c3)"><g clip-path="url(#a61c0b8ba2)"><path fill="url(#b0452e7eb3)" d="M 10.5 28.875 L -1.6875 69.429688 L 38.867188 81.617188 L 51.054688 41.0625 Z M 10.5 28.875 " fill-rule="nonzero"/></g></g></g></g><g clip-path="url(#db4fbc71cd)"><g clip-path="url(#116e1b478a)"><g clip-path="url(#65c4d1b1a1)"><path fill="#ffffff" d="M 36.996094 50.398438 L 34.242188 52.992188 L 32.867188 54.285156 L 31.492188 55.582031 L 30.113281 56.878906 L 28.738281 58.171875 L 27.359375 59.46875 L 25.984375 60.765625 L 24.171875 60.222656 L 22.871094 54.703125 L 21.496094 55.996094 L 20.117188 57.292969 L 20.554688 59.132812 L 21.421875 62.8125 L 25.039062 63.898438 L 26.851562 64.445312 L 28.226562 63.148438 L 29.605469 61.855469 L 30.980469 60.558594 L 32.359375 59.261719 L 35.109375 56.667969 L 37.863281 54.078125 L 40.617188 51.484375 Z M 36.996094 50.398438 " fill-opacity="1" fill-rule="nonzero"/></g></g></g><g clip-path="url(#42059a64a0)"><g clip-path="url(#034e069ab7)"><g clip-path="url(#9b72d94a6f)"><path fill="#ffffff" d="M 23.378906 49.726562 L 25.191406 50.269531 L 26.492188 55.789062 L 27.867188 54.492188 L 29.246094 53.195312 L 28.8125 51.359375 L 28.375 49.519531 L 27.941406 47.675781 L 24.324219 46.589844 L 22.511719 46.046875 L 21.132812 47.34375 L 19.757812 48.636719 L 17.007812 51.230469 L 15.628906 52.523438 L 12.878906 55.117188 L 11.5 56.414062 L 10.125 57.710938 L 8.75 59.003906 L 10.558594 59.546875 L 12.371094 60.09375 L 15.121094 57.5 L 16.496094 56.207031 L 17.875 54.910156 L 19.25 53.613281 L 20.628906 52.316406 L 22.003906 51.023438 Z M 23.378906 49.726562 " fill-opacity="1" fill-rule="nonzero"/></g></g></g><g fill="#000000" fill-opacity="1"><g transform="translate(44.406096, 71.354218)"><g><path d="M 11.3125 0 C 9.238281 0 7.613281 -0.59375 6.4375 -1.78125 C 5.257812 -2.976562 4.671875 -4.597656 4.671875 -6.640625 L 4.671875 -29.234375 L 8.890625 -29.234375 L 8.890625 -6.921875 C 8.890625 -5.910156 9.171875 -5.109375 9.734375 -4.515625 C 10.296875 -3.921875 11.082031 -3.625 12.09375 -3.625 L 16.8125 -3.625 L 16.8125 0 Z M 0.640625 -19.75 L 0.640625 -23.359375 L 16.90625 -23.359375 L 16.90625 -19.75 Z M 0.640625 -19.75 "/></g></g></g><g fill="#000000" fill-opacity="1"><g transform="translate(62.313671, 71.354218)"><g><path d="M 14.296875 0.546875 C 12.179688 0.546875 10.289062 0.113281 8.625 -0.75 C 6.96875 -1.625 5.671875 -2.835938 4.734375 -4.390625 C 3.804688 -5.953125 3.34375 -7.769531 3.34375 -9.84375 L 3.34375 -23.359375 L 7.609375 -23.359375 L 7.609375 -9.890625 C 7.609375 -8.484375 7.910156 -7.269531 8.515625 -6.25 C 9.128906 -5.226562 9.945312 -4.441406 10.96875 -3.890625 C 11.988281 -3.335938 13.082031 -3.0625 14.25 -3.0625 C 15.4375 -3.0625 16.539062 -3.335938 17.5625 -3.890625 C 18.59375 -4.441406 19.421875 -5.226562 20.046875 -6.25 C 20.671875 -7.269531 20.984375 -8.484375 20.984375 -9.890625 L 20.984375 -23.359375 L 25.25 -23.359375 L 25.25 -9.84375 C 25.25 -7.769531 24.773438 -5.953125 23.828125 -4.390625 C 22.878906 -2.835938 21.578125 -1.625 19.921875 -0.75 C 18.273438 0.113281 16.398438 0.546875 14.296875 0.546875 Z M 14.296875 0.546875 "/></g></g></g><g fill="#000000" fill-opacity="1"><g transform="translate(90.159839, 71.354218)"><g><path d="M 3.203125 0 L 3.203125 -16.71875 C 3.203125 -18.800781 3.789062 -20.425781 4.96875 -21.59375 C 6.144531 -22.769531 7.769531 -23.359375 9.84375 -23.359375 L 14.65625 -23.359375 L 14.65625 -19.75 L 10.625 -19.75 C 9.613281 -19.75 8.828125 -19.457031 8.265625 -18.875 C 7.703125 -18.289062 7.421875 -17.484375 7.421875 -16.453125 L 7.421875 0 Z M 3.203125 0 "/></g></g></g><g fill="#000000" fill-opacity="1"><g transform="translate(104.632411, 71.354218)"><g><path d="M 15.15625 0.546875 C 12.90625 0.546875 10.878906 0.0625 9.078125 -0.90625 C 7.273438 -1.882812 5.84375 -3.296875 4.78125 -5.140625 C 3.726562 -6.992188 3.203125 -9.21875 3.203125 -11.8125 L 3.203125 -33.4375 L 7.421875 -33.4375 L 7.421875 -19.203125 L 7.515625 -19.203125 C 8.035156 -20.140625 8.710938 -20.957031 9.546875 -21.65625 C 10.390625 -22.363281 11.351562 -22.914062 12.4375 -23.3125 C 13.519531 -23.71875 14.65625 -23.921875 15.84375 -23.921875 C 18.019531 -23.921875 19.960938 -23.429688 21.671875 -22.453125 C 23.378906 -21.472656 24.726562 -20.085938 25.71875 -18.296875 C 26.71875 -16.515625 27.21875 -14.398438 27.21875 -11.953125 C 27.21875 -10.035156 26.914062 -8.300781 26.3125 -6.75 C 25.71875 -5.207031 24.882812 -3.882812 23.8125 -2.78125 C 22.75 -1.6875 21.484375 -0.859375 20.015625 -0.296875 C 18.554688 0.265625 16.9375 0.546875 15.15625 0.546875 Z M 15.15625 -3.0625 C 16.59375 -3.0625 17.898438 -3.410156 19.078125 -4.109375 C 20.253906 -4.816406 21.191406 -5.8125 21.890625 -7.09375 C 22.597656 -8.382812 22.953125 -9.914062 22.953125 -11.6875 C 22.953125 -13.394531 22.609375 -14.890625 21.921875 -16.171875 C 21.234375 -17.453125 20.304688 -18.457031 19.140625 -19.1875 C 17.984375 -19.925781 16.671875 -20.296875 15.203125 -20.296875 C 13.773438 -20.296875 12.472656 -19.941406 11.296875 -19.234375 C 10.117188 -18.535156 9.1875 -17.535156 8.5 -16.234375 C 7.8125 -14.941406 7.46875 -13.410156 7.46875 -11.640625 C 7.46875 -9.898438 7.8125 -8.382812 8.5 -7.09375 C 9.1875 -5.8125 10.117188 -4.816406 11.296875 -4.109375 C 12.472656 -3.410156 13.757812 -3.0625 15.15625 -3.0625 Z M 15.15625 -3.0625 "/></g></g></g><g fill="#000000" fill-opacity="1"><g transform="translate(133.16557, 71.354218)"><g><path d="M 14.34375 0.546875 C 11.957031 0.546875 9.847656 0.00390625 8.015625 -1.078125 C 6.179688 -2.160156 4.726562 -3.625 3.65625 -5.46875 C 2.59375 -7.320312 2.0625 -9.394531 2.0625 -11.6875 C 2.0625 -13.976562 2.59375 -16.046875 3.65625 -17.890625 C 4.726562 -19.734375 6.179688 -21.195312 8.015625 -22.28125 C 9.847656 -23.375 11.957031 -23.921875 14.34375 -23.921875 C 16.71875 -23.921875 18.828125 -23.375 20.671875 -22.28125 C 22.523438 -21.195312 23.976562 -19.738281 25.03125 -17.90625 C 26.082031 -16.070312 26.609375 -14 26.609375 -11.6875 C 26.609375 -9.394531 26.082031 -7.320312 25.03125 -5.46875 C 23.976562 -3.625 22.523438 -2.160156 20.671875 -1.078125 C 18.828125 0.00390625 16.71875 0.546875 14.34375 0.546875 Z M 14.34375 -3.0625 C 15.957031 -3.0625 17.359375 -3.441406 18.546875 -4.203125 C 19.742188 -4.972656 20.675781 -6.003906 21.34375 -7.296875 C 22.019531 -8.597656 22.359375 -10.0625 22.359375 -11.6875 C 22.359375 -13.300781 22.019531 -14.753906 21.34375 -16.046875 C 20.675781 -17.347656 19.742188 -18.378906 18.546875 -19.140625 C 17.359375 -19.910156 15.957031 -20.296875 14.34375 -20.296875 C 12.75 -20.296875 11.347656 -19.910156 10.140625 -19.140625 C 8.941406 -18.378906 8.003906 -17.347656 7.328125 -16.046875 C 6.660156 -14.753906 6.328125 -13.300781 6.328125 -11.6875 C 6.328125 -10.0625 6.660156 -8.597656 7.328125 -7.296875 C 8.003906 -6.003906 8.941406 -4.972656 10.140625 -4.203125 C 11.347656 -3.441406 12.75 -3.0625 14.34375 -3.0625 Z M 14.34375 -3.0625 "/></g></g></g><g fill="#6e07e5" fill-opacity="1"><g transform="translate(161.110534, 71.354218)"><g><path d="M 3.34375 0 L 3.34375 -13.515625 C 3.34375 -15.585938 3.804688 -17.398438 4.734375 -18.953125 C 5.671875 -20.515625 6.960938 -21.734375 8.609375 -22.609375 C 10.265625 -23.484375 12.144531 -23.921875 14.25 -23.921875 C 16.382812 -23.921875 18.269531 -23.484375 19.90625 -22.609375 C 21.539062 -21.734375 22.820312 -20.515625 23.75 -18.953125 C 24.6875 -17.398438 25.15625 -15.585938 25.15625 -13.515625 L 25.15625 0 L 20.9375 0 L 20.9375 -13.46875 C 20.9375 -14.875 20.625 -16.085938 20 -17.109375 C 19.375 -18.128906 18.546875 -18.914062 17.515625 -19.46875 C 16.492188 -20.019531 15.40625 -20.296875 14.25 -20.296875 C 13.082031 -20.296875 11.988281 -20.019531 10.96875 -19.46875 C 9.945312 -18.914062 9.125 -18.128906 8.5 -17.109375 C 7.875 -16.085938 7.5625 -14.875 7.5625 -13.46875 L 7.5625 0 Z M 3.34375 0 "/></g></g></g><g fill="#6e07e5" fill-opacity="1"><g transform="translate(188.865097, 71.354218)"><g><path d="M 14.34375 0.546875 C 11.957031 0.546875 9.847656 0.00390625 8.015625 -1.078125 C 6.179688 -2.160156 4.726562 -3.625 3.65625 -5.46875 C 2.59375 -7.320312 2.0625 -9.394531 2.0625 -11.6875 C 2.0625 -13.976562 2.59375 -16.046875 3.65625 -17.890625 C 4.726562 -19.734375 6.179688 -21.195312 8.015625 -22.28125 C 9.847656 -23.375 11.957031 -23.921875 14.34375 -23.921875 C 16.71875 -23.921875 18.828125 -23.375 20.671875 -22.28125 C 22.523438 -21.195312 23.976562 -19.738281 25.03125 -17.90625 C 26.082031 -16.070312 26.609375 -14 26.609375 -11.6875 C 26.609375 -9.394531 26.082031 -7.320312 25.03125 -5.46875 C 23.976562 -3.625 22.523438 -2.160156 20.671875 -1.078125 C 18.828125 0.00390625 16.71875 0.546875 14.34375 0.546875 Z M 14.34375 -3.0625 C 15.957031 -3.0625 17.359375 -3.441406 18.546875 -4.203125 C 19.742188 -4.972656 20.675781 -6.003906 21.34375 -7.296875 C 22.019531 -8.597656 22.359375 -10.0625 22.359375 -11.6875 C 22.359375 -13.300781 22.019531 -14.753906 21.34375 -16.046875 C 20.675781 -17.347656 19.742188 -18.378906 18.546875 -19.140625 C 17.359375 -19.910156 15.957031 -20.296875 14.34375 -20.296875 C 12.75 -20.296875 11.347656 -19.910156 10.140625 -19.140625 C 8.941406 -18.378906 8.003906 -17.347656 7.328125 -16.046875 C 6.660156 -14.753906 6.328125 -13.300781 6.328125 -11.6875 C 6.328125 -10.0625 6.660156 -8.597656 7.328125 -7.296875 C 8.003906 -6.003906 8.941406 -4.972656 10.140625 -4.203125 C 11.347656 -3.441406 12.75 -3.0625 14.34375 -3.0625 Z M 14.34375 -3.0625 "/></g></g></g><g fill="#6e07e5" fill-opacity="1"><g transform="translate(216.802859, 71.354218)"><g><path d="M 14.109375 0.546875 C 12.335938 0.546875 10.71875 0.265625 9.25 -0.296875 C 7.789062 -0.859375 6.523438 -1.6875 5.453125 -2.78125 C 4.378906 -3.882812 3.546875 -5.207031 2.953125 -6.75 C 2.359375 -8.300781 2.0625 -10.035156 2.0625 -11.953125 C 2.0625 -14.398438 2.554688 -16.515625 3.546875 -18.296875 C 4.546875 -20.085938 5.90625 -21.472656 7.625 -22.453125 C 9.351562 -23.429688 11.285156 -23.921875 13.421875 -23.921875 C 14.609375 -23.921875 15.742188 -23.71875 16.828125 -23.3125 C 17.921875 -22.914062 18.894531 -22.363281 19.75 -21.65625 C 20.601562 -20.957031 21.273438 -20.140625 21.765625 -19.203125 L 21.859375 -19.203125 L 21.859375 -33.4375 L 26.0625 -33.4375 L 26.0625 -11.8125 C 26.0625 -9.21875 25.535156 -6.992188 24.484375 -5.140625 C 23.429688 -3.296875 22.007812 -1.882812 20.21875 -0.90625 C 18.4375 0.0625 16.398438 0.546875 14.109375 0.546875 Z M 14.109375 -3.0625 C 15.546875 -3.0625 16.84375 -3.410156 18 -4.109375 C 19.164062 -4.816406 20.09375 -5.8125 20.78125 -7.09375 C 21.46875 -8.382812 21.8125 -9.898438 21.8125 -11.640625 C 21.8125 -13.410156 21.46875 -14.941406 20.78125 -16.234375 C 20.09375 -17.535156 19.164062 -18.535156 18 -19.234375 C 16.84375 -19.941406 15.53125 -20.296875 14.0625 -20.296875 C 12.625 -20.296875 11.316406 -19.925781 10.140625 -19.1875 C 8.972656 -18.457031 8.046875 -17.453125 7.359375 -16.171875 C 6.671875 -14.890625 6.328125 -13.394531 6.328125 -11.6875 C 6.328125 -9.914062 6.675781 -8.382812 7.375 -7.09375 C 8.070312 -5.8125 9.007812 -4.816406 10.1875 -4.109375 C 11.363281 -3.410156 12.671875 -3.0625 14.109375 -3.0625 Z M 14.109375 -3.0625 "/></g></g></g><g fill="#6e07e5" fill-opacity="1"><g transform="translate(245.336024, 71.354218)"><g><path d="M 15.203125 0 C 12.640625 0 10.363281 -0.476562 8.375 -1.4375 C 6.394531 -2.40625 4.847656 -3.765625 3.734375 -5.515625 C 2.617188 -7.273438 2.0625 -9.332031 2.0625 -11.6875 C 2.0625 -14 2.535156 -16.078125 3.484375 -17.921875 C 4.429688 -19.773438 5.742188 -21.238281 7.421875 -22.3125 C 9.097656 -23.382812 11.050781 -23.921875 13.28125 -23.921875 C 15.695312 -23.921875 17.707031 -23.398438 19.3125 -22.359375 C 20.914062 -21.316406 22.113281 -19.914062 22.90625 -18.15625 C 23.695312 -16.40625 24.09375 -14.445312 24.09375 -12.28125 C 24.09375 -11.945312 24.082031 -11.59375 24.0625 -11.21875 C 24.050781 -10.851562 24.015625 -10.535156 23.953125 -10.265625 L 6.546875 -10.265625 C 6.703125 -8.828125 7.175781 -7.609375 7.96875 -6.609375 C 8.757812 -5.617188 9.773438 -4.875 11.015625 -4.375 C 12.253906 -3.875 13.625 -3.625 15.125 -3.625 L 21.21875 -3.625 L 21.21875 0 Z M 6.5 -13.234375 L 19.84375 -13.234375 C 19.84375 -13.816406 19.78125 -14.4375 19.65625 -15.09375 C 19.53125 -15.75 19.3125 -16.390625 19 -17.015625 C 18.695312 -17.640625 18.296875 -18.203125 17.796875 -18.703125 C 17.296875 -19.210938 16.671875 -19.617188 15.921875 -19.921875 C 15.171875 -20.234375 14.289062 -20.390625 13.28125 -20.390625 C 12.21875 -20.390625 11.28125 -20.179688 10.46875 -19.765625 C 9.65625 -19.359375 8.957031 -18.8125 8.375 -18.125 C 7.800781 -17.4375 7.359375 -16.660156 7.046875 -15.796875 C 6.742188 -14.941406 6.5625 -14.085938 6.5 -13.234375 Z M 6.5 -13.234375 "/></g></g></g><g fill="#6e07e5" fill-opacity="1"><g transform="translate(270.708982, 71.354218)"><g><path d="M 3.03125 0 L 3.03125 -3.625 L 14.203125 -3.625 C 14.929688 -3.625 15.5625 -3.78125 16.09375 -4.09375 C 16.632812 -4.414062 17.039062 -4.835938 17.3125 -5.359375 C 17.59375 -5.878906 17.734375 -6.429688 17.734375 -7.015625 C 17.734375 -7.554688 17.609375 -8.0625 17.359375 -8.53125 C 17.117188 -9.007812 16.742188 -9.394531 16.234375 -9.6875 C 15.734375 -9.976562 15.132812 -10.125 14.4375 -10.125 L 9.71875 -10.125 C 8.21875 -10.125 6.910156 -10.375 5.796875 -10.875 C 4.679688 -11.382812 3.8125 -12.125 3.1875 -13.09375 C 2.5625 -14.070312 2.25 -15.265625 2.25 -16.671875 C 2.25 -17.867188 2.535156 -18.96875 3.109375 -19.96875 C 3.691406 -20.976562 4.5 -21.796875 5.53125 -22.421875 C 6.570312 -23.046875 7.765625 -23.359375 9.109375 -23.359375 L 19.875 -23.359375 L 19.875 -19.75 L 9.53125 -19.75 C 8.582031 -19.75 7.832031 -19.457031 7.28125 -18.875 C 6.726562 -18.289062 6.453125 -17.601562 6.453125 -16.8125 C 6.453125 -16.050781 6.734375 -15.382812 7.296875 -14.8125 C 7.867188 -14.25 8.675781 -13.96875 9.71875 -13.96875 L 14.203125 -13.96875 C 15.878906 -13.96875 17.289062 -13.703125 18.4375 -13.171875 C 19.582031 -12.640625 20.453125 -11.867188 21.046875 -10.859375 C 21.640625 -9.847656 21.9375 -8.609375 21.9375 -7.140625 C 21.9375 -5.890625 21.628906 -4.722656 21.015625 -3.640625 C 20.410156 -2.554688 19.566406 -1.675781 18.484375 -1 C 17.398438 -0.332031 16.140625 0 14.703125 0 Z M 3.03125 0 "/></g></g></g></svg>