<svg width="55" height="57" viewBox="0 0 55 57" fill="none" xmlns="http://www.w3.org/2000/svg">
<path d="M25.5686 50.1538C39.7386 50.1538 51.1373 38.9744 51.1373 25.0769C51.1373 11.1794 39.7386 0 25.5686 0C11.3986 0 0 11.1794 0 25.0769C0 38.9744 11.3986 50.1538 25.5686 50.1538Z" fill="#2F76BC"/>
<path d="M32.5996 29.0471C32.5996 25.3912 30.3629 24.1374 25.8882 23.613C22.6918 23.1941 22.053 22.3592 22.053 20.8969C22.053 19.4354 23.1189 18.4949 25.2486 18.4949C27.1666 18.4949 28.2325 19.1214 28.7644 20.6892C28.872 21.0025 29.1915 21.2109 29.5109 21.2109H31.2163C31.6434 21.2109 31.9635 20.8969 31.9635 20.4781V20.3732C31.5365 18.0733 29.6185 16.2978 27.1694 16.0901V13.5825C27.1694 13.1636 26.8492 12.8497 26.318 12.7468H24.7195C24.2925 12.7468 23.973 13.0608 23.8682 13.5825V15.9845C20.6718 16.4034 18.647 18.4922 18.647 21.1053C18.647 24.5535 20.7767 25.9122 25.2514 26.4339C28.2353 26.9556 29.1942 27.5828 29.1942 29.2555C29.1942 30.9281 27.7033 32.0764 25.6785 32.0764C22.9092 32.0764 21.9509 30.9281 21.6308 29.3603C21.5239 28.9415 21.2037 28.7338 20.8843 28.7338H19.074C18.6469 28.7338 18.3275 29.0471 18.3275 29.4659V29.5715C18.7546 32.184 20.4573 34.065 23.973 34.5867V37.0943C23.973 37.5132 24.2925 37.8265 24.8244 37.9293H26.4229C26.8492 37.9293 27.1694 37.616 27.2742 37.0943V34.5867C30.4678 34.0623 32.5996 31.868 32.5996 29.0471Z" fill="white"/>
<path d="M31.4259 7.41778C30.9989 7.20938 30.5746 7.41778 30.4676 7.83662C30.36 7.94219 30.36 8.04503 30.36 8.25547V9.71768C30.36 10.1358 30.6794 10.5527 30.9989 10.7631C39.3088 13.6896 43.571 22.7802 40.4802 30.8248C38.8817 35.2128 35.366 38.556 30.9989 40.1231C30.5725 40.3309 30.36 40.6448 30.36 41.1685V42.6308C30.36 43.0496 30.5725 43.3629 30.9989 43.4657C31.1065 43.4657 31.319 43.4657 31.4259 43.3602C41.5455 40.226 47.0861 29.6738 43.8911 19.7455C41.9732 13.7924 37.2867 9.29884 31.4259 7.41778ZM20.1349 40.0176C11.825 37.0911 7.56275 28.0011 10.6542 19.9559C12.2521 15.5679 15.7678 12.2253 20.1349 10.6575C20.562 10.4498 20.7745 10.1358 20.7745 9.61212V8.14991C20.7745 7.73106 20.562 7.41778 20.1349 7.31494C20.028 7.31494 19.8155 7.31494 19.7079 7.4205C9.58832 10.5547 4.04767 21.1076 7.24331 31.0352C9.16125 36.8854 13.7429 41.3797 19.7079 43.2601C20.1349 43.4685 20.5592 43.2601 20.6668 42.8412C20.7745 42.7363 20.7745 42.6335 20.7745 42.4224V40.9608C20.7745 40.6448 20.455 40.2287 20.1349 40.0176Z" fill="white"/>
<path d="M54.4069 45.1355C52.4183 53.1121 44.3394 57.9665 36.3619 55.9774C28.3877 53.9888 23.5334 45.9093 25.5228 37.9334C27.5105 29.956 35.5895 25.1012 43.5645 27.0898C51.5414 29.0784 56.3955 37.1588 54.4067 45.1357L54.4069 45.1355H54.4069Z" fill="#F3BA2F"/>
<path fill-rule="evenodd" clip-rule="evenodd" d="M39.9666 36.0941L36.1111 39.9495L33.8679 37.7061L39.9666 31.6074L46.0673 37.708L43.8239 39.9513L39.9666 36.0941ZM32.2837 39.2899L30.0403 41.5337L32.2835 43.7766L34.527 41.5332L32.2837 39.2899ZM36.1108 43.118L39.9663 46.9733L43.8236 43.1162L46.0681 45.3583L46.067 45.3595L39.9663 51.46L33.8676 45.3613L33.8644 45.3581L36.1108 43.118ZM47.6495 39.2912L45.4061 41.5346L47.6494 43.7779L49.8928 41.5344L47.6495 39.2912Z" fill="white"/>
<path d="M42.2417 41.5325H42.2426L39.9664 39.2561L38.2839 40.9381L38.0907 41.1315L37.692 41.5302L37.6888 41.5333L37.692 41.5365L39.9664 43.8112L42.2428 41.5349L42.2439 41.5336L42.2418 41.5325" fill="white"/>
</svg>
