<svg width="49" height="48" viewBox="0 0 49 48" fill="none" xmlns="http://www.w3.org/2000/svg">
<path d="M20.4967 40.2051C31.8559 40.2051 40.9935 31.2433 40.9935 20.1026C40.9935 8.96183 31.8559 0 20.4967 0C9.13756 0 0 8.96183 0 20.1026C0 31.2433 9.13756 40.2051 20.4967 40.2051Z" fill="#2F76BC"/>
<path d="M26.133 23.2851C26.133 20.3544 24.34 19.3493 20.7529 18.929C18.1906 18.5932 17.6785 17.9239 17.6785 16.7517C17.6785 15.5801 18.533 14.8261 20.2402 14.8261C21.7777 14.8261 22.6322 15.3284 23.0586 16.5852C23.1449 16.8363 23.401 17.0034 23.657 17.0034H25.0242C25.3665 17.0034 25.6231 16.7517 25.6231 16.4159V16.3319C25.2808 14.4882 23.7433 13.0649 21.78 12.8983V10.8881C21.78 10.5524 21.5233 10.3007 21.0975 10.2183H19.8161C19.4737 10.2183 19.2177 10.4699 19.1336 10.8881V12.8137C16.5713 13.1495 14.9481 14.8239 14.9481 16.9188C14.9481 19.6829 16.6554 20.7721 20.2425 21.1903C22.6344 21.6085 23.4032 22.1113 23.4032 23.4522C23.4032 24.793 22.208 25.7135 20.5848 25.7135C18.3649 25.7135 17.5967 24.793 17.3401 23.5363C17.2543 23.2005 16.9977 23.034 16.7416 23.034H15.2904C14.9481 23.034 14.692 23.2851 14.692 23.6209V23.7055C15.0344 25.7998 16.3993 27.3077 19.2177 27.7259V29.7361C19.2177 30.0719 19.4737 30.323 19.9001 30.4054H21.1816C21.5233 30.4054 21.78 30.1543 21.864 29.7361V27.7259C24.4241 27.3055 26.133 25.5465 26.133 23.2851Z" fill="white"/>
<path d="M25.1921 5.94645C24.8497 5.77939 24.5096 5.94645 24.4239 6.28221C24.3376 6.36684 24.3376 6.44928 24.3376 6.61798V7.79014C24.3376 8.12535 24.5937 8.45948 24.8497 8.62818C31.5113 10.9741 34.928 18.2615 32.4504 24.7103C31.1689 28.2279 28.3506 30.908 24.8497 32.1642C24.508 32.3308 24.3376 32.5824 24.3376 33.0023V34.1745C24.3376 34.5102 24.508 34.7614 24.8497 34.8438C24.936 34.8438 25.1064 34.8438 25.1921 34.7592C33.3043 32.2467 37.7458 23.7877 35.1847 15.8288C33.6472 11.0566 29.8903 7.45438 25.1921 5.94645ZM16.1408 32.0796C9.47927 29.7337 6.0625 22.4468 8.54075 15.9975C9.82162 12.4799 12.64 9.80034 16.1408 8.54355C16.4831 8.37704 16.6535 8.12535 16.6535 7.70552V6.53335C16.6535 6.19759 16.4831 5.94645 16.1408 5.86401C16.0551 5.86401 15.8847 5.86401 15.7985 5.94864C7.68627 8.46112 3.24469 16.9207 5.80643 24.879C7.34392 29.5688 11.0168 33.1715 15.7985 34.6789C16.1408 34.846 16.4809 34.6789 16.5672 34.3431C16.6535 34.2591 16.6535 34.1766 16.6535 34.0074V32.8358C16.6535 32.5824 16.3974 32.2489 16.1408 32.0796Z" fill="white"/>
<g clip-path="url(#clip0_3454_2442)">
<path d="M36.4359 47.7437C43.3749 47.7437 49 42.1185 49 35.1796C49 28.2406 43.3749 22.6155 36.4359 22.6155C29.497 22.6155 23.8718 28.2406 23.8718 35.1796C23.8718 42.1185 29.497 47.7437 36.4359 47.7437Z" fill="url(#paint0_linear_3454_2442)"/>
<path d="M42.4126 34.6507L39.5769 33.0149C39.4843 32.9605 39.3789 32.9319 39.2716 32.9319C39.1642 32.9319 39.0588 32.9605 38.9663 33.0149L33.9105 35.9335C33.8169 35.9875 33.7107 36.016 33.6027 36.016C33.4946 36.016 33.3884 35.9875 33.2948 35.9335L31.6854 35.0038C31.5927 34.95 31.5157 34.8728 31.4622 34.78C31.4086 34.6872 31.3803 34.582 31.3801 34.4748V32.6103C31.38 32.5031 31.4082 32.3978 31.4618 32.3049C31.5154 32.2121 31.5925 32.135 31.6854 32.0813L33.2948 31.1491C33.3878 31.096 33.4931 31.0681 33.6001 31.0681C33.7072 31.0681 33.8125 31.096 33.9054 31.1491L35.5199 32.0813C35.613 32.1347 35.6903 32.2117 35.744 32.3046C35.7976 32.3975 35.8257 32.503 35.8252 32.6103V33.5061C35.8258 33.5325 35.8334 33.5583 35.8471 33.5809C35.8608 33.6035 35.8802 33.6221 35.9034 33.6348C35.9265 33.6476 35.9526 33.654 35.9791 33.6534C36.0055 33.6529 36.0313 33.6454 36.0539 33.6318L36.8944 33.148C36.9408 33.121 36.9792 33.0823 37.0058 33.0358C37.0325 32.9893 37.0465 32.9366 37.0465 32.8829V31.9042C37.0462 31.797 37.0179 31.6918 36.9644 31.599C36.9108 31.5062 36.8338 31.429 36.7412 31.3752L33.9054 29.7419C33.8127 29.6882 33.7074 29.6599 33.6001 29.6599C33.4929 29.6599 33.3876 29.6882 33.2948 29.7419L30.4591 31.3752C30.3664 31.429 30.2895 31.5062 30.2359 31.599C30.1823 31.6918 30.154 31.797 30.1538 31.9042V35.1797C30.1539 35.2868 30.1822 35.3921 30.2357 35.4849C30.2893 35.5778 30.3664 35.6549 30.4591 35.7086L33.2948 37.3419C33.3876 37.3957 33.4929 37.4239 33.6001 37.4239C33.7074 37.4239 33.8127 37.3957 33.9054 37.3419L38.9612 34.4258C39.0548 34.3718 39.161 34.3433 39.2691 34.3433C39.3771 34.3433 39.4833 34.3718 39.5769 34.4258L41.1964 35.3581C41.2879 35.4127 41.3636 35.4901 41.416 35.5829C41.4685 35.6756 41.4958 35.7805 41.4954 35.887V37.7515C41.4958 37.8588 41.4678 37.9643 41.4142 38.0572C41.3605 38.1501 41.2832 38.2272 41.1901 38.2805L39.5769 39.2102C39.4841 39.2639 39.3788 39.2922 39.2716 39.2922C39.1644 39.2922 39.0591 39.2639 38.9663 39.2102L37.3518 38.278C37.2589 38.2244 37.1818 38.1473 37.1282 38.0544C37.0747 37.9616 37.0465 37.8562 37.0465 37.749V36.8545C37.0461 36.814 37.0298 36.7754 37.0011 36.7469C36.9724 36.7184 36.9336 36.7024 36.8932 36.7024C36.8667 36.7022 36.8407 36.7092 36.8178 36.7225L35.9773 37.2075C35.9309 37.2344 35.8926 37.2731 35.8661 37.3197C35.8396 37.3663 35.8259 37.419 35.8265 37.4726V38.4551C35.8265 38.5622 35.8545 38.6674 35.9079 38.7602C35.9613 38.853 36.038 38.9302 36.1306 38.9841L38.9726 40.6174C39.0653 40.6711 39.1706 40.6994 39.2779 40.6994C39.3851 40.6994 39.4904 40.6711 39.5832 40.6174L42.4189 38.9841C42.5116 38.9304 42.5887 38.8532 42.6423 38.7604C42.6958 38.6676 42.7241 38.5623 42.7242 38.4551V35.1797C42.7235 35.0719 42.6943 34.9662 42.6395 34.8733C42.5848 34.7804 42.5065 34.7036 42.4126 34.6507Z" fill="white"/>
</g>
<defs>
<linearGradient id="paint0_linear_3454_2442" x1="36.4359" y1="47.7437" x2="36.4359" y2="22.6155" gradientUnits="userSpaceOnUse">
<stop stop-color="#4F2B8A"/>
<stop offset="1" stop-color="#AB78FF"/>
</linearGradient>
<clipPath id="clip0_3454_2442">
<rect width="25.1282" height="25.1282" fill="white" transform="translate(23.8718 22.6155)"/>
</clipPath>
</defs>
</svg>
