<svg width="49" height="57" viewBox="0 0 49 57" fill="none" xmlns="http://www.w3.org/2000/svg">
<path d="M24.2237 0C37.601 0 48.4468 10.6377 48.4468 23.7576C48.4468 36.8781 37.601 47.5152 24.2237 47.5152C10.8464 47.5152 0 36.8807 0 23.7576C0 10.6345 10.8445 0 24.2237 0Z" fill="#4FB197"/>
<path d="M27.2152 25.954V25.9514C27.0468 25.9617 26.183 26.0127 24.26 26.0127C22.7219 26.0127 21.6403 25.9694 21.2588 25.9501V25.9552C15.3418 25.6978 10.9248 24.6874 10.9248 23.4783C10.9248 22.2685 15.3425 21.2593 21.2588 21.0019V24.9481C21.6469 24.9745 22.7548 25.0384 24.285 25.0384C26.1225 25.0384 27.0468 24.9635 27.2159 24.9481V21.0019C33.1216 21.26 37.5288 22.2717 37.5288 23.4763C37.5288 24.6816 33.1197 25.6933 27.2159 25.9514M27.2132 20.5922V17.0583H35.4538V11.6733H13.0149V17.0583H21.2561V20.5896C14.5583 20.8916 9.52222 22.1923 9.52222 23.7505C9.52222 25.3094 14.5609 26.6101 21.2561 26.914V38.2344H27.2152V26.9127C33.9006 26.6101 38.9268 25.31 38.9268 23.7531C38.9268 22.1962 33.9006 20.8961 27.2152 20.5935" fill="white"/>
<path d="M48.5748 45.7305C46.6908 53.2874 39.0369 57.8864 31.4791 56.002C23.9245 54.118 19.3255 46.4636 21.2103 38.9073C23.0934 31.3496 30.7473 26.7503 38.3028 28.6343C45.86 30.5182 50.4587 38.1734 48.5746 45.7307L48.5747 45.7305H48.5748Z" fill="#F3BA2F"/>
<path fill-rule="evenodd" clip-rule="evenodd" d="M34.8936 37.1649L31.2409 40.8175L29.1157 38.6921L34.8936 32.9143L40.6733 38.6939L38.548 40.8192L34.8936 37.1649ZM27.6149 40.1926L25.4895 42.3183L27.6147 44.4433L29.7401 42.3179L27.6149 40.1926ZM31.241 43.8193L34.8937 47.4718L38.548 43.8176L40.6744 45.9418L40.6734 45.9429L34.8937 51.7224L29.1158 45.9445L29.1128 45.9415L31.241 43.8193ZM42.1723 40.1938L40.0469 42.3192L42.1722 44.4444L44.2975 42.3191L42.1723 40.1938Z" fill="white"/>
<path d="M37.0496 42.317H37.0505L34.8941 40.1604L33.3001 41.7539L33.117 41.9371L32.7393 42.3148L32.7363 42.3178L32.7393 42.3208L34.8941 44.4759L37.0507 42.3193L37.0517 42.3181L37.0498 42.317" fill="white"/>
</svg>
