<svg width="49" height="54" viewBox="0 0 49 54" fill="none" xmlns="http://www.w3.org/2000/svg">
<path d="M21.605 0.378418C33.5361 0.378418 43.2093 9.86611 43.2093 21.5676C43.2093 33.2697 33.5361 42.7568 21.605 42.7568C9.67386 42.7568 0 33.272 0 21.5676C0 9.86323 9.6721 0.378418 21.605 0.378418Z" fill="#4FB197"/>
<path d="M24.2729 23.5263V23.524C24.1227 23.5332 23.3523 23.5787 21.6372 23.5787C20.2654 23.5787 19.3007 23.5401 18.9604 23.5229V23.5275C13.6831 23.2979 9.74365 22.3967 9.74365 21.3183C9.74365 20.2393 13.6837 19.3392 18.9604 19.1096V22.6292C19.3066 22.6528 20.2947 22.7097 21.6595 22.7097C23.2983 22.7097 24.1227 22.643 24.2735 22.6292V19.1096C29.5408 19.3398 33.4715 20.2421 33.4715 21.3165C33.4715 22.3915 29.539 23.2938 24.2735 23.524M24.2712 18.7442V15.5924H31.6209V10.7896H11.6078V15.5924H18.9581V18.7419C12.9843 19.0112 8.49268 20.1714 8.49268 21.5611C8.49268 22.9514 12.9866 24.1116 18.9581 24.3826V34.4791H24.2729V24.3815C30.2355 24.1116 34.7183 22.952 34.7183 21.5634C34.7183 20.1748 30.2355 19.0152 24.2729 18.7454" fill="white"/>
<path fill-rule="evenodd" clip-rule="evenodd" d="M31.1219 33.5252L27.8642 36.7829L25.9687 34.8873L31.1219 29.7341L36.2768 34.8889L34.3812 36.7844L31.1219 33.5252ZM24.6301 36.2256L22.7345 38.1215L24.63 40.0167L26.5256 38.1211L24.6301 36.2256ZM27.8642 39.4602L31.122 42.7178L34.3813 39.4587L36.2778 41.3532L36.2769 41.3542L31.122 46.5089L25.9688 41.3557L25.9661 41.353L27.8642 39.4602ZM37.6137 36.2267L35.7181 38.1223L37.6137 40.0178L39.5092 38.1221L37.6137 36.2267Z" fill="white"/>
<path d="M33.0444 38.1205H33.0452L31.1219 36.197L29.7002 37.6182L29.5369 37.7816L29.2001 38.1185L29.1974 38.1212L29.2001 38.1239L31.1219 40.046L33.0453 38.1225L33.0463 38.1214L33.0445 38.1205" fill="white"/>
<g clip-path="url(#clip0_3454_2416)">
<path d="M35.7569 53.3512C43.071 53.3512 49.0002 47.422 49.0002 40.108C49.0002 32.7939 43.071 26.8647 35.7569 26.8647C28.4429 26.8647 22.5137 32.7939 22.5137 40.108C22.5137 47.422 28.4429 53.3512 35.7569 53.3512Z" fill="url(#paint0_linear_3454_2416)"/>
<path d="M42.0564 39.5504L39.0674 37.8261C38.9699 37.7688 38.8588 37.7386 38.7456 37.7386C38.6325 37.7386 38.5214 37.7688 38.4238 37.8261L33.0947 40.9025C32.9961 40.9595 32.8842 40.9894 32.7703 40.9894C32.6564 40.9894 32.5445 40.9595 32.4458 40.9025L30.7494 39.9225C30.6517 39.8658 30.5706 39.7845 30.5141 39.6866C30.4576 39.5888 30.4278 39.4779 30.4276 39.365V37.3997C30.4275 37.2867 30.4573 37.1756 30.5137 37.0778C30.5702 36.9799 30.6515 36.8986 30.7494 36.8421L32.4458 35.8595C32.5438 35.8035 32.6548 35.7741 32.7676 35.7741C32.8805 35.7741 32.9914 35.8035 33.0894 35.8595L34.7912 36.8421C34.8893 36.8983 34.9708 36.9795 35.0274 37.0775C35.0839 37.1754 35.1134 37.2866 35.113 37.3997V38.3439C35.1136 38.3718 35.1216 38.3989 35.136 38.4228C35.1505 38.4466 35.1709 38.4662 35.1954 38.4796C35.2198 38.493 35.2473 38.4998 35.2751 38.4992C35.303 38.4986 35.3302 38.4907 35.354 38.4763L36.24 37.9665C36.2888 37.938 36.3293 37.8972 36.3574 37.8481C36.3856 37.7991 36.4003 37.7436 36.4003 37.687V36.6554C36.4 36.5424 36.3702 36.4315 36.3137 36.3337C36.2572 36.2359 36.1761 36.1546 36.0784 36.0979L33.0894 34.3762C32.9916 34.3196 32.8806 34.2898 32.7676 34.2898C32.6546 34.2898 32.5436 34.3196 32.4458 34.3762L29.4568 36.0979C29.3591 36.1546 29.278 36.2359 29.2216 36.3337C29.1651 36.4315 29.1353 36.5424 29.135 36.6554V40.1079C29.1351 40.2209 29.1649 40.3319 29.2214 40.4297C29.2779 40.5275 29.359 40.6088 29.4568 40.6654L32.4458 42.3871C32.5436 42.4437 32.6546 42.4735 32.7676 42.4735C32.8806 42.4735 32.9916 42.4437 33.0894 42.3871L38.4185 39.3133C38.5172 39.2564 38.6291 39.2264 38.743 39.2264C38.8569 39.2264 38.9688 39.2564 39.0674 39.3133L40.7745 40.296C40.8709 40.3535 40.9507 40.4352 41.006 40.5329C41.0613 40.6307 41.0901 40.7412 41.0897 40.8535V42.8188C41.0901 42.9319 41.0606 43.0431 41.004 43.141C40.9475 43.2389 40.866 43.3201 40.7679 43.3763L39.0674 44.3563C38.9696 44.413 38.8586 44.4428 38.7456 44.4428C38.6326 44.4428 38.5216 44.413 38.4238 44.3563L36.7221 43.3737C36.6242 43.3172 36.5429 43.2359 36.4864 43.138C36.43 43.0402 36.4002 42.9292 36.4003 42.8161V41.8732C36.3999 41.8306 36.3827 41.7899 36.3525 41.7598C36.3222 41.7298 36.2813 41.713 36.2387 41.713C36.2108 41.7128 36.1833 41.7201 36.1592 41.7342L35.2733 42.2454C35.2244 42.2737 35.184 42.3145 35.156 42.3636C35.1281 42.4127 35.1137 42.4683 35.1143 42.5248V43.5604C35.1143 43.6733 35.1439 43.7841 35.2001 43.882C35.2564 43.9798 35.3373 44.0612 35.4348 44.118L38.4304 45.8396C38.5282 45.8962 38.6392 45.926 38.7523 45.926C38.8653 45.926 38.9763 45.8962 39.0741 45.8396L42.0631 44.118C42.1608 44.0614 42.242 43.9801 42.2985 43.8822C42.355 43.7844 42.3848 43.6734 42.3849 43.5604V40.1079C42.3841 39.9943 42.3533 39.8829 42.2956 39.785C42.238 39.6871 42.1555 39.6061 42.0564 39.5504Z" fill="white"/>
</g>
<defs>
<linearGradient id="paint0_linear_3454_2416" x1="35.7569" y1="53.3512" x2="35.7569" y2="26.8647" gradientUnits="userSpaceOnUse">
<stop stop-color="#4F2B8A"/>
<stop offset="1" stop-color="#AB78FF"/>
</linearGradient>
<clipPath id="clip0_3454_2416">
<rect width="26.4865" height="26.4865" fill="white" transform="translate(22.5137 26.8647)"/>
</clipPath>
</defs>
</svg>
